# xmcd CD database file
#
# Track frame offsets:
#	150
#	22089
#	41816
#	60409
#	76746
#	95077
#	113453
#	124408
#	143066
#	154497
#	168123
#	193892
#	211801
#	233707
#	254433
#	279173
#	292653
#	307981
#
# Disc length: 4457 seconds
#
# Revision: 4
# Processed by: cddbd v1.5.2PL0 Copyright (c) Steve Scherf et al.
# Submitted via: CDex 1.81
#
DISCID=f3116712
DTITLE=The New Divas - JazzDivas- The Very Best Of CD2
DYEAR=2014
DGENRE=Jazz
TTITLE0=Diana Krall - On The Sunny Side Of The Street
TTITLE1=Kellylee Evans - Feeling Good
TTITLE2=Norah Jones and Jesse Harris - Rocking Chairs
TTITLE3=Madeleine Peuroux - He's Got Me Goin'
TTITLE4=Terez Montcalm - Sweet Dreams
TTITLE5=China Moses - Gee Baby, Ain't I Good To You
TTITLE6=Cyrille Aimee - It's A Good Day
TTITLE7=Belleruche - Minor Swing
TTITLE8=Alice Russell - Think
TTITLE9=Susie Arioli - Mother Earth
TTITLE10=Elisabeth Kontomanou - Sunny
TTITLE11=Sandra Nkake - Same Reality
TTITLE12=Denise King - Mellow, Mellow
TTITLE13=Laika Fatien - How Deep Is The Ocean
TTITLE14=Youn Sun Nah - Momento Magico
TTITLE15=Melody Gardot - My Sweet Darling
TTITLE16=Katie Melua - Crawling Up A Hill
TTITLE17=Anne Ducos - Laura
EXTD=YEAR: 2014
EXTT0=
EXTT1=
EXTT2=
EXTT3=
EXTT4=
EXTT5=
EXTT6=
EXTT7=
EXTT8=
EXTT9=
EXTT10=
EXTT11=
EXTT12=
EXTT13=
EXTT14=
EXTT15=
EXTT16=
EXTT17=
PLAYORDER=
